<?xml version="1.0" encoding="utf-8"?>
<!-- Generator: Adobe Illustrator 28.0.0, SVG Export Plug-In . SVG Version: 6.00 Build 0)  -->
<svg version="1.1" id="Layer_1" xmlns="http://www.w3.org/2000/svg" xmlns:xlink="http://www.w3.org/1999/xlink" x="0px" y="0px"
	 viewBox="0 0 1080 1080" style="enable-background:new 0 0 1080 1080;" xml:space="preserve">
<style type="text/css">
	.st0{fill:url(#SVGID_1_);}
	.st1{fill-rule:evenodd;clip-rule:evenodd;fill:url(#SVGID_00000006667278281328413460000003862736242299675306_);}
</style>
<g>
	
		<linearGradient id="SVGID_1_" gradientUnits="userSpaceOnUse" x1="528.0633" y1="541.1658" x2="664.778" y2="541.1658" gradientTransform="matrix(1 0 0 1 0 2)">
		<stop  offset="8.939386e-02" style="stop-color:#F400A3"/>
		<stop  offset="0.2581" style="stop-color:#CE3C96"/>
		<stop  offset="0.4262" style="stop-color:#8A50A0"/>
		<stop  offset="0.5859" style="stop-color:#3C57A6"/>
		<stop  offset="0.7402" style="stop-color:#1DADD4"/>
		<stop  offset="0.8827" style="stop-color:#00FFFF"/>
	</linearGradient>
	<path class="st0" d="M611.8,770.3c-0.8,0-1-0.1-1-0.1l-0.4-0.2l-0.3-0.1c-2.4-1-3.5-3.6-2.5-6.1c72.7-175.8,48.8-285.3,15.9-346.3
		c-36.6-68-92.1-92.6-92.7-92.8c-2.3-1-3.3-3.7-2.3-6c0.7-1.6,2.3-2.7,4.2-2.7c0.6,0,1.3,0.1,1.9,0.4l0.2,0.1
		c0.4,0.2,57.8,26,96,95.2c21.9,39.8,33.4,86.2,34,137.8c0.8,64.8-15.6,138.1-48.6,217.9C615.2,769.5,613.2,770.3,611.8,770.3z"/>
	
		<linearGradient id="SVGID_00000019644178607806612520000001018894684819256480_" gradientUnits="userSpaceOnUse" x1="19.35" y1="540" x2="1060.6499" y2="540">
		<stop  offset="8.939386e-02" style="stop-color:#F400A3"/>
		<stop  offset="0.2581" style="stop-color:#CE3C96"/>
		<stop  offset="0.4262" style="stop-color:#8A50A0"/>
		<stop  offset="0.5859" style="stop-color:#3C57A6"/>
		<stop  offset="0.7402" style="stop-color:#1DADD4"/>
		<stop  offset="0.8827" style="stop-color:#00FFFF"/>
	</linearGradient>
	<path style="fill-rule:evenodd;clip-rule:evenodd;fill:url(#SVGID_00000019644178607806612520000001018894684819256480_);" d="
		M1060.6,571.3c0-50.5-23.4-98.4-65.9-134.6c-31.7-26.9-71-45.1-113.8-53.1c-15.2-28.4-34.2-53.2-56.6-73.6
		c24.5-20.6,49-45.4,74.8-75.7c4.5-5.1,4.1-13-0.8-17.8c-3.8-3.6-97-92.2-207.6-78.6C630,145.5,577,182.1,532,246.7
		C485.8,172.3,429,129.1,362.6,118.2C242,98.4,135.8,192.6,131.2,196.7c-4.9,4.5-5.6,12.2-1.5,17.6c37,48.2,73.6,86.2,109.5,113.9
		c-44.5,45.5-70.9,113.5-76.7,197.7c-5,73,5.8,133.9,26.9,184.7c-21.9-7-41.8-17.9-58.6-32.2C97.5,650,79.2,612,79.2,571.4
		s18.4-78.7,51.7-107c11.9-10.2,25.3-18.7,39.7-25.4c4.8-18.9,10.7-36.6,18-53c-38.8,9-74.2,26.2-103.2,51
		c-42.4,36.1-65.8,83.8-66,134.3c0,0.1,0,0.1,0,0.2v0.1c0,50.7,23.4,98.4,66,134.6c35.6,30.4,81.1,49.7,130.6,55.7
		c114.3,180.7,368.3,202.3,371.7,202.6c0.5,0,0.7,0,1,0c1.7,0,3.3-0.2,4.5-1.3c3.7-1.3,355.2-135.2,327.9-437.9
		c-2.9-31.7-8.9-61.5-17.8-88.9c11.7,4.8,22.7,10.8,32.8,17.9c0.9,0.6,1.9,1.2,2.8,1.7c3.6,2.6,7.1,5.2,10.4,8
		c33.3,28.5,51.6,66.6,51.6,107.2c0,40.8-18.4,78.9-51.7,107.4c-16.7,14.2-31.3,22.5-49.7,28.8l-32.1,54.3
		c48-4.7,90.6-24.1,127.4-55.5c42.5-36.1,65.9-84,65.9-134.6C1060.6,571.5,1060.6,571.4,1060.6,571.3z M693.5,163.9
		c79.6-9.9,152.2,42.6,177.2,63.3c-23.1,26.2-45.2,48.1-67.1,66.1c-1.7-1.3-3.6-2.6-5.5-3.8c-64-43.5-147.9-53.8-243.2-30
		C595,202.7,641.5,170.5,693.5,163.9z M158.1,208.2c27.4-21.4,111.3-79.2,200.6-64.4c61.5,10.2,114.7,53.1,158,127.6
		c-12.6,19.4-56.2,80-126.7,85.8C319.1,363.1,240.9,312.9,158.1,208.2z M188.6,527.6c5.5-79.6,30.4-143,72.1-184.1
		c40.4,26.8,79.9,40.2,118.2,40.2c4.5,0,8.7-0.2,13.3-0.5c77.9-6.5,126.2-67.3,143.7-93.6c2.3,0.7,4.9,0.8,7.5,0.1
		c97-28.3,177.9-21.2,240.5,21.4c3.3,2.2,6.4,4.5,9.5,7c0,0,0,0.1,0.1,0.1c1.3,1.6,2.9,2.9,4.7,3.7c19.4,15.8,36.2,35.2,50.3,57.5
		c-1.1-0.1-2.3-0.1-3.6-0.1c-1.6-0.1-3.3-0.2-5-0.2c-3-0.1-6.1-0.2-9.2-0.2c-0.2,0-0.6,0-0.8,0h-3.1h-0.2
		c-33.1,0.3-64.9,6.5-93.7,17.9c-0.5,0.1-0.8,0.3-1.3,0.5c-0.7,0.2-1.3,0.5-2,0.8c-8.8,3.4-17.3,7.2-25.5,11.5c-2.6,1.4-4.9,3-7,4.9
		c-10.5,6.3-20.5,13.4-29.7,21.3l-23.2,18.3L540,539.3L414.9,437c-43.7-37.3-102.1-57.9-164.8-57.9c-3.8,0-7.8,0.1-11.6,0.2
		c-8,13.7-14.8,28.8-20.4,45.2c10.5-1.7,21.2-2.7,32-2.7c44.6,0,87.2,15.3,119.9,43l130.3,106.7L369.8,676.9
		c-32.4,26.2-72.3,41.8-114,42.9c-1.9,0-3.7,0.1-5.7,0.1c-9.9,0-19.7-0.7-29.3-2.1C194.4,663.1,183.6,599.6,188.6,527.6z
		 M895.2,527.5c24.1,269.4-276.7,397.9-308.3,410.4c-17.8-1.7-114.9-13.3-208.5-63.6c-55.5-29.7-99-66.7-130.4-110.5
		c0.7,0,1.5,0,2.2,0c6.3,0,12.5-0.2,18.6-0.7c0.1,0.1,0.2,0.2,0.2,0.3c55.2-3.6,106.1-23.2,144.5-56.1L540,604.1l100,81.7
		c0-0.1,0-0.2,0.1-0.3l25,20.5c3.3,2.8,6.6,5.5,10,8c0,0.1,0,0.2-0.1,0.2c36.8,27.9,87,43.4,136.2,47.5c11.8-14,22.4-28.3,31.6-42.9
		c-2.7,0.1-9.9,1.6-12.7,1.6c-19.7,0-38.9-2.8-56.9-8.3l0.1-0.3c-23.6-7.1-45.2-18.6-63.5-34l-21.4-17.6c-1-1.3-2.1-2.4-3.5-3.5
		l-105.4-85.9l132.2-107.5c5.2-4.4,10.8-8.5,16.7-12.3c28.8-18.4,64.2-28.4,101.5-28.4c13.2,0,26.1,1.3,38.5,3.6
		c0-0.1-0.1-0.2-0.1-0.2c1.3,0.2,2.5,0.5,3.8,0.8C883.9,457,891.8,490.8,895.2,527.5z"/>
</g>
</svg>
